<?xml version="1.0" standalone="no"?>
<!DOCTYPE svg PUBLIC "-//W3C//DTD SVG 1.0//EN" "http://www.w3.org/TR/2001/REC-SVG-20010904/DTD/svg10.dtd">

<svg width="200" xmlns:xlink="http://www.w3.org/1999/xlink" height="105" xmlns="http://www.w3.org/2000/svg">
    <defs>
        <filter x="-10%" y="-10%" width="150%" filterUnits="objectBoundingBox" height="150%" id="Beveled-Marble-Shadow">
            <feTurbulence baseFrequency="0.15" result="I0A" numOctaves="1"/>
            <feDisplacementMap xChannelSelector="R" yChannelSelector="G" result="I0" in="I0A" scale="25"
                 in2="I0A"/>
            <feColorMatrix values="0 0 0 1 0 0 0 0 1 0 0 0 0 1 0 0 0 0 0 255" type="matrix" result="I1"
                 in="I0"/>
            <feComposite in2="I1" operator="arithmetic" result="I2" in="SourceGraphic" k1="1"/>
            <feGaussianBlur stdDeviation="1" result="I3" in="I2"/>
            <feGaussianBlur stdDeviation="3" result="I4" in="SourceAlpha"/>
            <feSpecularLighting specularConstant="0.5" specularExponent="20" result="I5" in="I4"
                 surfaceScale="5" lighting-color="rgb(255,255,255)">
                <fePointLight x="-5000" y="-10000" z="20000"/>
            </feSpecularLighting>
            <feComposite result="I6" in="I3" k2="1" k3="1" in2="I5" operator="arithmetic"/>
            <feComposite in2="SourceGraphic" operator="in" result="I7" in="I6"/>
            <feGaussianBlur stdDeviation="4" result="blur" in="SourceAlpha"/>
            <feOffset dx="4" dy="4" result="offsetBlur" in="blur"/>
            <feMerge>
                <feMergeNode in="offsetBlur"/>
                <feMergeNode in="I7"/>
            </feMerge>
        </filter>
    </defs>
    <g>
        <polygon fill="rgb(255,215,0)" stroke-width="0" points="250,233 255,221 260,233 305,233 
            300,239 327,239 327,261 335,265 327,269 327,291 300,291 305,297 260,297 255,309 250,297 
            205,297 210,291 183,291 183,269 175,265 183,261 183,239 208,239 203,233" transform="matrix(1 0 0 1 98.1928 -61.4458) translate(-269 -155)"/>
        <polygon fill="none" stroke-width="3" points="250,233 255,221 260,233 305,233 300,239 
            327,239 327,261 335,265 327,269 327,291 300,291 305,297 260,297 255,309 250,297 205,297 
            210,291 183,291 183,269 175,265 183,261 183,239 208,239 203,233 250,233" transform="matrix(1 0 0 1 98.1928 -61.4458) translate(-269 -155)"
             stroke="rgb(128,128,128)"/>
    </g>
</svg>