<?xml version="1.0" standalone="no"?>
<!DOCTYPE svg PUBLIC "-//W3C//DTD SVG 1.0//EN" "http://www.w3.org/TR/2001/REC-SVG-20010904/DTD/svg10.dtd">

<svg width="215" xmlns:xlink="http://www.w3.org/1999/xlink" height="105.0" xmlns="http://www.w3.org/2000/svg">
    <defs>
        <filter x="-10%" y="-10%" width="150%" filterUnits="objectBoundingBox" height="150%" id="Beveled-Marble-Shadow">
            <feTurbulence baseFrequency="0.15" result="I0A" numOctaves="1"/>
            <feDisplacementMap xChannelSelector="R" yChannelSelector="G" result="I0" in="I0A" scale="25"
                 in2="I0A"/>
            <feColorMatrix values="0 0 0 1 0 0 0 0 1 0 0 0 0 1 0 0 0 0 0 255" type="matrix" result="I1"
                 in="I0"/>
            <feComposite in2="I1" operator="arithmetic" result="I2" in="SourceGraphic" k1="1"/>
            <feGaussianBlur stdDeviation="1" result="I3" in="I2"/>
            <feGaussianBlur stdDeviation="3" result="I4" in="SourceAlpha"/>
            <feSpecularLighting specularConstant="0.5" specularExponent="20" result="I5" in="I4"
                 surfaceScale="5" lighting-color="rgb(255,255,255)">
                <fePointLight x="-5000" y="-10000" z="20000"/>
            </feSpecularLighting>
            <feComposite result="I6" in="I3" k2="1" k3="1" in2="I5" operator="arithmetic"/>
            <feComposite in2="SourceGraphic" operator="in" result="I7" in="I6"/>
            <feGaussianBlur stdDeviation="4" result="blur" in="SourceAlpha"/>
            <feOffset dx="4" dy="4" result="offsetBlur" in="blur"/>
            <feMerge>
                <feMergeNode in="offsetBlur"/>
                <feMergeNode in="I7"/>
            </feMerge>
        </filter>
    </defs>
    <g>
        <polygon fill="rgb(169, 169, 169)" stroke-width="0" points="99.0,4.0 88.0,11.0 37.0,18.0 
            45.0,26.0 15.0,25.0 10.0,37.0 3.0,45.0 10.0,53.0 15.0,65.0 45.0,64.0 37.0,72.0 88.0,79.0 
            99.0,86.0 110.0,79.0 161.0,72.0 153.0,64.0 183.0,65.0 188.0,53.0 195.0,45.0 188.0,37.0 
            183.0,25.0 153.0,26.0 161.0,18.0 110.0,11.0"/>
        <polygon fill="none" stroke-width="3" points="99.0,4.0 88.0,11.0 37.0,18.0 45.0,26.0 
            15.0,25.0 10.0,37.0 3.0,45.0 10.0,53.0 15.0,65.0 45.0,64.0 37.0,72.0 88.0,79.0 99.0,86.0 
            110.0,79.0 161.0,72.0 153.0,64.0 183.0,65.0 188.0,53.0 195.0,45.0 188.0,37.0 183.0,25.0 
            153.0,26.0 161.0,18.0 110.0,11.0" stroke="rgb(128,128,128)"/>
    </g>
</svg>