<?xml version="1.0" standalone="no"?>
<!DOCTYPE svg PUBLIC "-//W3C//DTD SVG 1.0//EN" "http://www.w3.org/TR/2001/REC-SVG-20010904/DTD/svg10.dtd">

<svg width="175" xmlns:xlink="http://www.w3.org/1999/xlink" height="100" xmlns="http://www.w3.org/2000/svg">
    <defs>
        <filter x="-10%" y="-10%" width="150%" filterUnits="objectBoundingBox" id="Beveled-Marble-Shadow"
             height="150%">
            <feTurbulence baseFrequency="0.15" numOctaves="1" result="I0A"/>
            <feDisplacementMap xChannelSelector="R" yChannelSelector="G" result="I0" in="I0A" in2="I0A"
                 scale="25"/>
            <feColorMatrix values="0 0 0 1 0 0 0 0 1 0 0 0 0 1 0 0 0 0 0 255" type="matrix" in="I0"
                 result="I1"/>
            <feComposite in2="I1" operator="arithmetic" in="SourceGraphic" result="I2" k1="1"/>
            <feGaussianBlur stdDeviation="1" in="I2" result="I3"/>
            <feGaussianBlur stdDeviation="3" in="SourceAlpha" result="I4"/>
            <feSpecularLighting specularExponent="20" specularConstant="0.5" result="I5" in="I4"
                 surfaceScale="5" lighting-color="rgb(255,255,255)">
                <fePointLight x="-5000" y="-10000" z="20000"/>
            </feSpecularLighting>
            <feComposite result="I6" in="I3" k2="1" k3="1" in2="I5" operator="arithmetic"/>
            <feComposite in2="SourceGraphic" operator="in" in="I6" result="I7"/>
            <feGaussianBlur stdDeviation="4" in="SourceAlpha" result="blur"/>
            <feOffset dx="4" dy="4" in="blur" result="offsetBlur"/>
            <feMerge>
                <feMergeNode in="offsetBlur"/>
                <feMergeNode in="I7"/>
            </feMerge>
        </filter>
    </defs>
    <g>
        <polygon fill="rgb( 0, 128, 0)" stroke-width="0" points="33.0,25.0 31.0,19.0 49.0,8.0 
            75.0,11.0 83.0,17.0 91.0,11.0 117.0,8.0 135.0,19.0 133.0,25.0 143.0,27.0 153.0,25.0 
            149.0,30.0 157.0,36.0 152.0,45.0 157.0,54.0 149.0,60.0 153.0,65.0 143.0,63.0 133.0,65.0 
            135.0,71.0 117.0,82.0 91.0,79.0 83.0,73.0 75.0,79.0 49.0,82.0 31.0,71.0 33.0,65.0 
            23.0,63.0 13.0,65.0 17.0,60.0 9.0,54.0 14.0,45.0 9.0,36.0 17.0,30.0 13.0,25.0 23.0,27.0"/>
        <polygon fill="none" stroke-width="3" points="33.0,25.0 31.0,19.0 49.0,8.0 75.0,11.0 
            83.0,17.0 91.0,11.0 117.0,8.0 135.0,19.0 133.0,25.0 143.0,27.0 153.0,25.0 149.0,30.0 
            157.0,36.0 152.0,45.0 157.0,54.0 149.0,60.0 153.0,65.0 143.0,63.0 133.0,65.0 135.0,71.0 
            117.0,82.0 91.0,79.0 83.0,73.0 75.0,79.0 49.0,82.0 31.0,71.0 33.0,65.0 23.0,63.0 
            13.0,65.0 17.0,60.0 9.0,54.0 14.0,45.0 9.0,36.0 17.0,30.0 13.0,25.0 23.0,27.0" filter="url(#Beveled-Marble-Shadow)"
             stroke="rgb(128,128,128)"/>
    </g>
</svg>